<svg xmlns="http://www.w3.org/2000/svg" version="1.1" xmlns:xlink="http://www.w3.org/1999/xlink" xmlns:svgjs="http://svgjs.com/svgjs" width="1920" height="1080" preserveAspectRatio="none" viewBox="0 0 1920 1080"><g mask="url(&quot;#SvgjsMask1018&quot;)" fill="none"><rect width="1920" height="1080" x="0" y="0" fill="url(#SvgjsLinearGradient1019)"></rect><path d="M -964.0829795113588,842 C -836.08,770.6 -580.08,480.4 -324.08297951135876,485 C -68.08,489.6 59.92,872 315.91702048864124,865 C 571.92,858 699.92,502.6 955.9170204886412,450 C 1211.92,397.4 1403.1,616.6 1595.9170204886414,602 C 1788.73,587.4 1855.18,422 1920,377" stroke="rgba(207, 207, 207, 1)" stroke-width="2"></path><path d="M -868.7759237521545,902 C -740.78,756 -484.78,178.8 -228.77592375215457,172 C 27.22,165.2 155.22,808 411.22407624784546,868 C 667.22,928 795.22,512.4 1051.2240762478455,472 C 1307.22,431.6 1517.47,684.4 1691.2240762478455,666 C 1864.98,647.6 1874.24,437.2 1920,380" stroke="rgba(207, 207, 207, 1)" stroke-width="2"></path><path d="M -1071.0161261502747,659 C -943.02,580.6 -687.02,286.6 -431.01612615027466,267 C -175.02,247.4 -47.02,509.4 208.98387384972534,561 C 464.98,612.6 592.98,499.8 848.9838738497253,525 C 1104.98,550.2 1274.78,746 1488.9838738497253,687 C 1703.19,628 1833.8,321.4 1920,230" stroke="rgba(207, 207, 207, 1)" stroke-width="2"></path><path d="M -889.6855983082354,412 C -761.69,438.4 -505.69,525.8 -249.68559830823537,544 C 6.31,562.2 134.31,497.6 390.3144016917646,503 C 646.31,508.4 774.31,575.6 1030.3144016917647,571 C 1286.31,566.4 1492.38,415.6 1670.3144016917647,480 C 1848.25,544.4 1870.06,810.4 1920,893" stroke="rgba(207, 207, 207, 1)" stroke-width="2"></path></g><defs><mask id="SvgjsMask1018"><rect width="1920" height="1080" fill="#ffffff"></rect></mask><linearGradient x1="10.94%" y1="-19.44%" x2="89.06%" y2="119.44%" gradientUnits="userSpaceOnUse" id="SvgjsLinearGradient1019"><stop stop-color="rgba(14, 42, 71, 1)" offset="0"></stop><stop stop-color="rgba(0, 188, 144, 1)" offset="1"></stop></linearGradient></defs></svg>