<svg xmlns="http://www.w3.org/2000/svg" version="1.1" xmlns:xlink="http://www.w3.org/1999/xlink" xmlns:svgjs="http://svgjs.com/svgjs" width="460" height="500" preserveAspectRatio="none" viewBox="0 0 460 500"><g mask="url(&quot;#SvgjsMask1102&quot;)" fill="none"><rect width="460" height="500" x="0" y="0" fill="rgba(233, 233, 233, 1)"></rect><path d="M475.3333333333333 500L0 500 L0 291.56Q54.13 307.36, 38.333333333333336 361.49Q28.13 312.96, 76.66666666666667 302.76Q83.86 271.62, 115 278.82Q138.43 263.91, 153.33333333333334 287.34Q177.29 288.3, 176.33333333333334 312.26Q211.39 324.31, 199.33333333333334 359.37Q226.89 348.6, 237.66666666666669 376.16Q229.82 345.31, 260.6666666666667 337.46Q244.34 298.13, 283.6666666666667 281.8Q332 307.13, 306.6666666666667 355.46Q293.98 319.77, 329.6666666666667 307.09Q338.59 277.68, 368 286.6Q397.29 292.89, 391 322.19Q438.31 331.17, 429.3333333333333 378.48Q402.32 328.47, 452.3333333333333 301.46Q485.53 311.65, 475.3333333333333 344.85z" fill="rgba(200, 200, 201, 1)"></path><path d="M482.99999999999994 500L0 500 L0 389.21Q35.71 386.59, 38.333333333333336 422.3Q39.79 400.75, 61.333333333333336 402.21Q52.29 370.17, 84.33333333333334 361.13Q108.71 347.17, 122.66666666666669 371.55Q141.76 367.64, 145.66666666666669 386.73Q191.13 409.2, 168.66666666666669 454.66Q133.38 396.37, 191.66666666666669 361.08Q240.21 386.62, 214.66666666666669 435.16Q202.65 400.14, 237.66666666666669 388.13Q237.36 364.82, 260.6666666666667 364.51Q265.3 346.14, 283.6666666666667 350.77Q351.08 379.85, 322 447.27Q307.22 394.15, 360.3333333333333 379.37Q358.69 354.73, 383.3333333333333 353.09Q418.69 365.45, 406.3333333333333 400.81Q449.58 405.72, 444.66666666666663 448.97Q417.83 383.8, 482.99999999999994 356.96z" fill="rgba(166, 166, 166, 1)"></path><path d="M482.99999999999994 500L0 500 L0 466.52Q-3.45 440.07, 23 436.62Q66.19 456.81, 46 500.01Q43.65 459.32, 84.33333333333334 456.97Q97.11 431.41, 122.66666666666669 444.18Q136.74 419.92, 161.00000000000003 434Q191.29 441.29, 184.00000000000003 471.58Q200.74 465.31, 207.00000000000003 482.05Q241.62 478.33, 245.33333333333337 512.95Q255.94 485.22, 283.6666666666667 495.83Q265.59 454.75, 306.6666666666667 436.68Q361.56 453.24, 345 508.14Q336.43 461.23, 383.3333333333333 452.66Q395.6 426.59, 421.66666666666663 438.86Q427.39 421.59, 444.66666666666663 427.31Q474.44 418.75, 482.99999999999994 448.52z" fill="rgba(255, 255, 255, 1)"></path></g><defs><mask id="SvgjsMask1102"><rect width="460" height="500" fill="#ffffff"></rect></mask></defs></svg>