<svg xmlns="http://www.w3.org/2000/svg" version="1.1" xmlns:xlink="http://www.w3.org/1999/xlink" xmlns:svgjs="http://svgjs.com/svgjs" width="400" height="300" preserveAspectRatio="none" viewBox="0 0 400 300"><g mask="url(&quot;#SvgjsMask1488&quot;)" fill="none"><rect width="400" height="300" x="0" y="0" fill="url(#SvgjsLinearGradient1489)"></rect><path d="M400 0L290.55 0L400 23.1z" fill="rgba(255, 255, 255, .1)"></path><path d="M290.55 0L400 23.1L400 131.78L158.21 0z" fill="rgba(255, 255, 255, .075)"></path><path d="M158.20999999999998 0L400 131.78L400 140.85L152.57 0z" fill="rgba(255, 255, 255, .05)"></path><path d="M152.57 0L400 140.85L400 246.7L69.61 0z" fill="rgba(255, 255, 255, .025)"></path><path d="M0 300L146.75 300L0 166.76z" fill="rgba(0, 0, 0, .1)"></path><path d="M0 166.76L146.75 300L240.37 300L0 109.03z" fill="rgba(0, 0, 0, .075)"></path><path d="M0 109.03L240.37 300L257.97 300L0 71.36z" fill="rgba(0, 0, 0, .05)"></path><path d="M0 71.36000000000001L257.97 300L298.06000000000006 300L0 20.670000000000016z" fill="rgba(0, 0, 0, .025)"></path></g><defs><mask id="SvgjsMask1488"><rect width="400" height="300" fill="#ffffff"></rect></mask><linearGradient x1="6.25%" y1="-8.33%" x2="93.75%" y2="108.33%" gradientUnits="userSpaceOnUse" id="SvgjsLinearGradient1489"><stop stop-color="rgba(243, 243, 243, 1)" offset="0"></stop><stop stop-color="rgba(232, 232, 232, 1)" offset="1"></stop></linearGradient></defs></svg>