<svg xmlns="http://www.w3.org/2000/svg" version="1.1" xmlns:xlink="http://www.w3.org/1999/xlink" xmlns:svgjs="http://svgjs.com/svgjs" width="1440" height="560" preserveAspectRatio="none" viewBox="0 0 1440 560"><g mask="url(&quot;#SvgjsMask4408&quot;)" fill="none"><rect width="1440" height="560" x="0" y="0" fill="url(#SvgjsLinearGradient4409)"></rect><path d="M1440 0L1295.77 0L1440 123.54z" fill="rgba(255, 255, 255, .1)"></path><path d="M1295.77 0L1440 123.54L1440 193.45L1133.32 0z" fill="rgba(255, 255, 255, .075)"></path><path d="M1133.3200000000002 0L1440 193.45L1440 363.51L603.8600000000001 0z" fill="rgba(255, 255, 255, .05)"></path><path d="M603.86 0L1440 363.51L1440 379.59L572.45 0z" fill="rgba(255, 255, 255, .025)"></path><path d="M0 560L412.35 560L0 474z" fill="rgba(0, 0, 0, .1)"></path><path d="M0 474L412.35 560L771.83 560L0 297.47z" fill="rgba(0, 0, 0, .075)"></path><path d="M0 297.47L771.83 560L1140.39 560L0 282.76000000000005z" fill="rgba(0, 0, 0, .05)"></path><path d="M0 282.76000000000005L1140.39 560L1179.2900000000002 560L0 157.13000000000005z" fill="rgba(0, 0, 0, .025)"></path></g><defs><mask id="SvgjsMask4408"><rect width="1440" height="560" fill="#ffffff"></rect></mask><linearGradient x1="50%" y1="100%" x2="50%" y2="0%" gradientUnits="userSpaceOnUse" id="SvgjsLinearGradient4409"><stop stop-color="rgba(190, 190, 190, 1)" offset="0.06"></stop><stop stop-color="rgba(255, 255, 255, 1)" offset="0.85"></stop></linearGradient></defs></svg>